HIERARCHY
ROOT hips
{
	OFFSET 0.000000 104.274902 0.000000
	CHANNELS 6 Xposition Yposition Zposition Xrotation Yrotation Zrotation
	JOINT spine
	{
		OFFSET 0.000000 10.181549 0.131524
		CHANNELS 6 Xposition Yposition Zposition Xrotation Yrotation Zrotation
		JOINT chest
		{
			OFFSET 0.000000 9.893990 -1.470706
			CHANNELS 3 Xrotation Yrotation Zrotation
			JOINT upperChest
			{
				OFFSET 0.000000 9.220787 -1.370637
				CHANNELS 3 Xrotation Yrotation Zrotation
				JOINT neck
				{
					OFFSET 0.000000 16.740372 -2.049022
					CHANNELS 6 Xposition Yposition Zposition Xrotation Yrotation Zrotation
					JOINT head
					{
						OFFSET 0.000000 9.617859 1.684976
						CHANNELS 6 Xposition Yposition Zposition Xrotation Yrotation Zrotation
						JOINT headEnd
						{
							OFFSET 0.000000 22.037384 7.501072
							CHANNELS 6 Xposition Yposition Zposition Xrotation Yrotation Zrotation
							End Site
							{
								OFFSET 0.000000 23.106567 -2.828246
							}
						}
					}
				}
				JOINT rightShoulder
				{
					OFFSET -4.570000 11.014877 -2.160840
					CHANNELS 6 Xposition Yposition Zposition Xrotation Yrotation Zrotation
					JOINT rightUpperArm
					{
						OFFSET -10.592867 -0.524796 -2.232105
						CHANNELS 3 Xrotation Yrotation Zrotation
						JOINT rightLowerArm
						{
							OFFSET -27.841497 0.000000 -0.000002
							CHANNELS 3 Xrotation Yrotation Zrotation
							JOINT rightHand
							{
								OFFSET -28.328812 0.000000 -0.000001
								CHANNELS 3 Xrotation Yrotation Zrotation
								JOINT rightThumbProximal
								{
									OFFSET -2.464798 -1.573990 2.681911
									CHANNELS 6 Xposition Yposition Zposition Xrotation Yrotation Zrotation
									JOINT rightThumbIntermediate
									{
										OFFSET -3.244781 -1.873383 1.873376
										CHANNELS 3 Xrotation Yrotation Zrotation
										JOINT rightThumbDistal
										{
											OFFSET -2.646263 -1.527817 1.527818
											CHANNELS 6 Xposition Yposition Zposition Xrotation Yrotation Zrotation
											JOINT rightHandThumb4
											{
												OFFSET -1.994591 -1.151581 1.151575
												CHANNELS 6 Xposition Yposition Zposition Xrotation Yrotation Zrotation
												End Site
												{
													OFFSET -1.860176 -1.142715 1.365483
												}
											}
										}
									}
								}
								JOINT rightIndexProximal
								{
									OFFSET -9.108299 -0.517883 2.259803
									CHANNELS 6 Xposition Yposition Zposition Xrotation Yrotation Zrotation
									JOINT rightIndexIntermediate
									{
										OFFSET -3.699997 0.000000 0.000000
										CHANNELS 3 Xrotation Yrotation Zrotation
										JOINT rightIndexDistal
										{
											OFFSET -2.850006 0.000000 0.000000
											CHANNELS 3 Xrotation Yrotation Zrotation
											JOINT rightHandIndex4
											{
												OFFSET -2.772194 0.000000 0.000000
												CHANNELS 3 Xrotation Yrotation Zrotation
												End Site
												{
													OFFSET -2.772202 0.000000 -0.000484
												}
											}
										}
									}
								}
								JOINT rightMiddleProximal
								{
									OFFSET -9.532501 0.000000 -0.000000
									CHANNELS 6 Xposition Yposition Zposition Xrotation Yrotation Zrotation
									JOINT rightMiddleIntermediate
									{
										OFFSET -3.699997 0.000000 0.000000
										CHANNELS 3 Xrotation Yrotation Zrotation
										JOINT rightMiddleDistal
										{
											OFFSET -2.949997 0.000000 0.000000
											CHANNELS 3 Xrotation Yrotation Zrotation
											JOINT rightHandMiddle4
											{
												OFFSET -2.946594 0.000000 0.000000
												CHANNELS 3 Xrotation Yrotation Zrotation
												End Site
												{
													OFFSET -2.946602 0.000000 -0.000982
												}
											}
										}
									}
								}
								JOINT rightRingProximal
								{
									OFFSET -9.103600 -0.043106 -1.865100
									CHANNELS 6 Xposition Yposition Zposition Xrotation Yrotation Zrotation
									JOINT rightRingIntermediate
									{
										OFFSET -3.379303 0.000000 0.000000
										CHANNELS 3 Xrotation Yrotation Zrotation
										JOINT rightRingDistal
										{
											OFFSET -2.889694 0.000000 0.000000
											CHANNELS 3 Xrotation Yrotation Zrotation
											JOINT rightHandRing4
											{
												OFFSET -2.638802 0.000000 0.000000
												CHANNELS 3 Xrotation Yrotation Zrotation
												End Site
												{
													OFFSET -2.638802 0.000000 0.004218
												}
											}
										}
									}
								}
								JOINT rightLittleProximal
								{
									OFFSET -8.076698 -0.486725 -3.806299
									CHANNELS 6 Xposition Yposition Zposition Xrotation Yrotation Zrotation
									JOINT rightLittleIntermediate
									{
										OFFSET -3.600006 0.000000 0.000000
										CHANNELS 3 Xrotation Yrotation Zrotation
										JOINT rightLittleDistal
										{
											OFFSET -2.099998 0.000000 0.000000
											CHANNELS 3 Xrotation Yrotation Zrotation
											JOINT rightHandPinky4
											{
												OFFSET -2.115791 0.000000 0.000000
												CHANNELS 3 Xrotation Yrotation Zrotation
												End Site
												{
													OFFSET -2.115799 0.000000 0.000174
												}
											}
										}
									}
								}
							}
						}
					}
				}
				JOINT leftShoulder
				{
					OFFSET 4.570400 11.014679 -2.160816
					CHANNELS 6 Xposition Yposition Zposition Xrotation Yrotation Zrotation
					JOINT leftUpperArm
					{
						OFFSET 10.592373 -0.524597 -2.232116
						CHANNELS 3 Xrotation Yrotation Zrotation
						JOINT leftLowerArm
						{
							OFFSET 27.841488 0.000000 0.000001
							CHANNELS 3 Xrotation Yrotation Zrotation
							JOINT leftHand
							{
								OFFSET 28.328808 0.000000 -0.000000
								CHANNELS 3 Xrotation Yrotation Zrotation
								JOINT leftThumbProximal
								{
									OFFSET 2.466103 -1.576202 2.681698
									CHANNELS 6 Xposition Yposition Zposition Xrotation Yrotation Zrotation
									JOINT leftThumbIntermediate
									{
										OFFSET 3.243317 -1.872528 1.872530
										CHANNELS 3 Xrotation Yrotation Zrotation
										JOINT leftThumbDistal
										{
											OFFSET 2.647881 -1.528763 1.528754
											CHANNELS 6 Xposition Yposition Zposition Xrotation Yrotation Zrotation
											JOINT leftHandThumb4
											{
												OFFSET 1.998924 -1.154083 1.154080
												CHANNELS 6 Xposition Yposition Zposition Xrotation Yrotation Zrotation
												End Site
												{
													OFFSET 1.884041 -1.149155 1.337651
												}
											}
										}
									}
								}
								JOINT leftIndexProximal
								{
									OFFSET 9.109299 -0.518005 2.259900
									CHANNELS 6 Xposition Yposition Zposition Xrotation Yrotation Zrotation
									JOINT leftIndexIntermediate
									{
										OFFSET 3.699997 0.000000 0.000000
										CHANNELS 3 Xrotation Yrotation Zrotation
										JOINT leftIndexDistal
										{
											OFFSET 2.850006 0.000000 0.000000
											CHANNELS 3 Xrotation Yrotation Zrotation
											JOINT leftHandIndex4
											{
												OFFSET 2.774895 0.000000 0.000000
												CHANNELS 3 Xrotation Yrotation Zrotation
												End Site
												{
													OFFSET 2.774902 0.000000 -0.000072
												}
											}
										}
									}
								}
								JOINT leftMiddleProximal
								{
									OFFSET 9.533401 0.000000 0.000000
									CHANNELS 6 Xposition Yposition Zposition Xrotation Yrotation Zrotation
									JOINT leftMiddleIntermediate
									{
										OFFSET 3.699997 0.000000 0.000000
										CHANNELS 3 Xrotation Yrotation Zrotation
										JOINT leftMiddleDistal
										{
											OFFSET 2.949997 0.000000 0.000000
											CHANNELS 3 Xrotation Yrotation Zrotation
											JOINT leftHandMiddle4
											{
												OFFSET 2.952896 0.000000 0.000000
												CHANNELS 3 Xrotation Yrotation Zrotation
												End Site
												{
													OFFSET 2.952904 0.000000 0.000165
												}
											}
										}
									}
								}
								JOINT leftRingProximal
								{
									OFFSET 9.104500 -0.042999 -1.865101
									CHANNELS 6 Xposition Yposition Zposition Xrotation Yrotation Zrotation
									JOINT leftRingIntermediate
									{
										OFFSET 3.149994 0.000000 0.000000
										CHANNELS 3 Xrotation Yrotation Zrotation
										JOINT leftRingDistal
										{
											OFFSET 2.950005 0.000000 0.000000
											CHANNELS 3 Xrotation Yrotation Zrotation
											JOINT leftHandRing4
											{
												OFFSET 2.644302 0.000000 0.000000
												CHANNELS 3 Xrotation Yrotation Zrotation
												End Site
												{
													OFFSET 2.644302 0.000000 0.000083
												}
											}
										}
									}
								}
								JOINT leftLittleProximal
								{
									OFFSET 8.077805 -0.486893 -3.806302
									CHANNELS 6 Xposition Yposition Zposition Xrotation Yrotation Zrotation
									JOINT leftLittleIntermediate
									{
										OFFSET 3.600006 0.000000 0.000000
										CHANNELS 3 Xrotation Yrotation Zrotation
										JOINT leftLittleDistal
										{
											OFFSET 2.099998 0.000000 0.000000
											CHANNELS 3 Xrotation Yrotation Zrotation
											JOINT leftHandPinky4
											{
												OFFSET 2.125496 0.000000 0.000000
												CHANNELS 3 Xrotation Yrotation Zrotation
												End Site
												{
													OFFSET 2.125504 0.000000 -0.001254
												}
											}
										}
									}
								}
							}
						}
					}
				}
			}
		}
	}
	JOINT rightUpperLeg
	{
		OFFSET -8.207800 -6.751701 -1.599544
		CHANNELS 6 Xposition Yposition Zposition Xrotation Yrotation Zrotation
		JOINT rightLowerLeg
		{
			OFFSET 0.000004 -44.370152 0.345934
			CHANNELS 3 Xrotation Yrotation Zrotation
			JOINT rightFoot
			{
				OFFSET 0.000004 -44.423664 -3.043535
				CHANNELS 3 Xrotation Yrotation Zrotation
				JOINT rightToes
				{
					OFFSET 0.000001 -8.728691 10.710592
					CHANNELS 3 Xrotation Yrotation Zrotation
					JOINT rightToesEnd
					{
						OFFSET 0.000000 -0.000665 9.278101
						CHANNELS 3 Xrotation Yrotation Zrotation
						End Site
						{
							OFFSET 0.000000 -0.000665 9.278103
						}
					}
				}
			}
		}
	}
	JOINT leftUpperLeg
	{
		OFFSET 8.207800 -6.751701 -1.599544
		CHANNELS 6 Xposition Yposition Zposition Xrotation Yrotation Zrotation
		JOINT leftLowerLeg
		{
			OFFSET 0.000004 -44.370037 0.346940
			CHANNELS 3 Xrotation Yrotation Zrotation
			JOINT leftFoot
			{
				OFFSET 0.000004 -44.423611 -3.044388
				CHANNELS 3 Xrotation Yrotation Zrotation
				JOINT leftToes
				{
					OFFSET 0.000001 -8.728690 10.710592
					CHANNELS 3 Xrotation Yrotation Zrotation
					JOINT leftToesEnd
					{
						OFFSET 0.000000 -0.000680 9.278101
						CHANNELS 3 Xrotation Yrotation Zrotation
						End Site
						{
							OFFSET 0.000000 -0.000680 9.278101
						}
					}
				}
			}
		}
	}
}
MOTION
Frames: 4
Frame Time: 0.033333
-11.324871 102.595116 1.340646 7.867458 2.898116 8.940657 -0.000001 10.181544 0.131520 -2.305020 -0.531044 -1.614954 -4.635920 -1.026641 -1.125451 -4.642600 -0.995756 -1.124455 0.000001 16.740351 -2.049022 1.761347 1.246958 1.307717 0.000004 9.617870 1.684977 16.290660 9.064746 -10.581581 0.000000 22.037369 7.501073 -0.000000 -0.000001 0.000000 -4.569997 11.014862 -2.160840 0.311966 -11.867186 7.607355 -61.412942 26.694801 17.461112 -0.000005 28.813976 0.000017 -16.583716 14.716121 -33.943206 -2.464792 -1.573980 2.681927 -1.849245 -3.581791 -6.586144 4.637198 -8.634135 -0.225378 -2.646277 -1.527825 1.527805 -1.273759 0.137309 -2.094879 -1.994613 -1.151570 1.151573 0.000001 -0.000003 -0.000000 -9.108296 -0.517884 2.259814 0.000000 -0.000001 -0.000001 0.000001 0.000003 -0.000001 0.000002 -0.000000 0.000000 0.000000 -0.000002 0.000000 -9.532498 -0.000001 0.000011 0.000000 -0.000001 -0.000001 0.000001 -0.000000 0.000024 -0.000000 0.000004 -0.000003 0.000000 -0.000000 0.000001 -9.103604 -0.043107 -1.865084 0.000000 -0.000001 -0.000001 0.000000 -0.000004 0.000041 -0.000000 0.000000 -0.000004 -0.000000 0.000002 0.000001 -8.076705 -0.486727 -3.806285 -0.000001 -0.000001 -0.000000 -0.000000 -0.000001 -0.000000 0.000001 -0.000001 -0.000001 -0.000000 -0.000001 -0.000001 4.570404 11.014669 -2.160816 -0.013328 7.658041 -7.980863 20.566721 -22.586864 -57.726143 0.000000 -13.604670 -0.000000 -3.314139 -10.796540 15.045421 2.466110 -1.576188 2.681700 -1.539951 3.690285 6.142355 3.939044 7.948708 0.746807 2.647875 -1.528759 1.528748 -0.579470 1.575003 2.538717 1.998928 -1.154094 1.154080 0.000001 0.000001 0.000001 9.109303 -0.518005 2.259899 0.000011 0.000003 0.000004 -0.000000 -0.000001 0.000001 -0.000000 -0.000001 0.000001 -0.000001 -0.000002 0.000001 9.533398 -0.000002 -0.000000 0.000003 -0.001922 0.015981 -0.000002 0.001924 -0.015973 0.000000 -0.000000 0.000002 0.000000 0.000002 0.000001 9.104496 -0.043001 -1.865100 0.000011 0.000003 0.000004 0.000000 -0.000001 0.000001 0.000000 -0.000001 0.000001 -0.000000 -0.000000 0.000001 8.077807 -0.486898 -3.806303 -0.018089 4.054259 0.511083 -0.018090 -4.054253 -0.511075 -0.000002 -0.000001 0.000004 -0.000001 -0.000001 0.000003 -8.207801 -6.751700 -1.599546 -9.432899 -4.142313 -13.276266 12.530682 -10.322457 -7.144440 -10.423517 -2.903165 13.000673 -0.868594 0.000002 -0.000002 -0.000000 0.000002 0.000000 8.207800 -6.751700 -1.599546 -14.465369 22.256866 9.350696 4.132316 -4.393419 3.767540 38.952046 -5.298828 -17.113719 -32.791748 0.105990 -2.371916 -0.000000 0.000001 0.000000 
-11.112469 102.788933 0.850179 6.985826 2.655902 9.689063 0.000001 10.181547 0.131523 -1.661322 -0.495159 -1.715820 -3.348266 -0.963682 -1.782021 -3.353415 -0.945231 -1.781722 0.000001 16.740370 -2.049023 2.063199 1.140748 2.051882 0.000000 9.617867 1.684975 12.550644 9.982674 -10.495636 -0.000002 22.037415 7.501070 -0.000000 0.000000 -0.000000 -4.570001 11.014874 -2.160841 0.300391 -11.327145 7.441722 -52.932682 30.551272 7.929864 -0.000001 26.546005 0.000028 -30.935088 11.960946 -2.209386 -2.464808 -1.573985 2.681912 -1.849254 -3.581791 -6.586153 4.637200 -8.634136 -0.225380 -2.646274 -1.527810 1.527822 -1.273760 0.137311 -2.094877 -1.994587 -1.151569 1.151570 0.000002 -0.000005 0.000001 -9.108297 -0.517884 2.259809 0.000002 -0.000000 -0.000001 0.000000 0.000000 0.000001 0.000003 -0.000001 0.000001 0.000001 0.000003 0.000001 -9.532507 -0.000000 0.000009 0.000002 0.000000 -0.000001 0.000004 -0.000001 0.000025 0.000001 0.000000 -0.000000 0.000001 -0.000003 -0.000001 -9.103605 -0.043107 -1.865088 0.000002 -0.000001 -0.000001 0.000001 -0.000004 0.000043 0.000001 -0.000001 -0.000004 -0.000001 0.000000 0.000006 -8.076709 -0.486739 -3.806285 -0.000002 0.000002 -0.000002 0.000003 0.000002 -0.000000 0.000005 0.000001 -0.000001 0.000003 0.000002 0.000002 4.570404 11.014668 -2.160817 -0.002115 7.381179 -7.686350 22.894862 -26.639203 -55.409732 -0.000004 -13.376463 -0.000000 -6.087728 -9.000265 15.492727 2.466099 -1.576198 2.681698 -1.539945 3.690278 6.142357 3.939045 7.948705 0.746804 2.647871 -1.528740 1.528749 -0.579468 1.575003 2.538712 1.998913 -1.154094 1.154076 0.000001 0.000003 0.000001 9.109293 -0.518019 2.259899 0.000014 -0.000001 0.000006 -0.000000 0.000000 0.000003 -0.000000 0.000000 0.000003 0.000001 0.000003 0.000003 9.533395 0.000004 -0.000001 0.000004 -0.001924 0.015982 -0.000000 0.001927 -0.015977 0.000000 -0.000000 0.000003 0.000001 -0.000000 0.000001 9.104494 -0.042995 -1.865102 0.000014 -0.000001 0.000006 0.000000 0.000002 0.000003 0.000000 0.000002 0.000003 -0.000000 0.000004 0.000000 8.077803 -0.486894 -3.806304 -0.018084 4.054256 0.511085 -0.018090 -4.054254 -0.511079 0.000002 0.000001 0.000001 0.000003 -0.000001 0.000001 -8.207801 -6.751710 -1.599543 -8.857972 -4.568234 -13.964448 11.936632 -10.372596 -7.693351 -9.766409 -2.419570 13.401026 -0.950697 -0.000008 0.000000 0.000000 -0.000000 -0.000000 8.207801 -6.751698 -1.599544 -13.179273 23.336197 8.349194 3.277128 -4.788738 3.538670 40.225846 -5.143201 -16.129861 -33.036635 0.124981 -2.808254 0.000000 0.000002 0.000000 
-10.976715 102.989799 0.349568 6.118674 1.689671 11.075053 -0.000000 10.181554 0.131523 -0.846349 -0.392190 -2.086089 -1.717857 -0.771058 -3.170182 -1.720670 -0.764217 -3.170227 0.000002 16.740364 -2.049020 1.770277 1.164844 2.635691 -0.000004 9.617827 1.684975 7.352007 11.137083 -9.880272 0.000000 22.037384 7.501073 -0.000000 0.000001 -0.000000 -4.570000 11.014861 -2.160840 0.176755 -9.972193 6.160441 -32.551988 28.430878 -10.712488 0.000001 22.572788 0.000016 -38.384792 3.822051 22.518259 -2.464794 -1.573994 2.681911 -1.849242 -3.581792 -6.586156 4.637199 -8.634139 -0.225379 -2.646272 -1.527803 1.527824 -1.273760 0.137314 -2.094878 -1.994597 -1.151554 1.151569 -0.000002 -0.000001 -0.000000 -9.108304 -0.517885 2.259811 -0.000001 0.000001 -0.000004 0.000004 0.000002 -0.000003 0.000001 -0.000000 -0.000001 0.000002 -0.000003 -0.000001 -9.532498 -0.000001 0.000004 -0.000001 0.000001 -0.000004 0.000003 -0.000000 0.000025 0.000002 0.000001 -0.000001 0.000002 0.000002 0.000001 -9.103590 -0.043123 -1.865090 -0.000001 0.000001 -0.000004 0.000003 -0.000005 0.000040 0.000004 0.000001 -0.000004 0.000003 0.000002 0.000005 -8.076701 -0.486732 -3.806293 -0.000003 0.000000 0.000001 -0.000000 0.000003 -0.000001 0.000000 0.000000 0.000000 0.000001 0.000000 -0.000002 4.570403 11.014689 -2.160815 0.013014 7.043865 -7.337107 25.682346 -28.119098 -51.348249 -0.000004 -14.803407 -0.000003 -7.583566 -8.164118 15.829322 2.466084 -1.576190 2.681696 -1.539952 3.690281 6.142356 3.939043 7.948709 0.746807 2.647883 -1.528738 1.528752 -0.579468 1.575005 2.538711 1.998924 -1.154093 1.154075 0.000001 0.000003 0.000003 9.109289 -0.518006 2.259896 0.000011 0.000001 0.000004 0.000001 0.000001 0.000000 0.000001 0.000001 0.000000 -0.000001 0.000002 -0.000000 9.533387 0.000011 -0.000003 0.000001 -0.001925 0.015976 -0.000003 0.001926 -0.015972 -0.000001 -0.000002 0.000000 0.000000 -0.000001 0.000001 9.104490 -0.043002 -1.865105 0.000011 0.000001 0.000004 -0.000001 0.000001 -0.000004 -0.000001 0.000001 -0.000004 -0.000000 0.000000 -0.000004 8.077812 -0.486901 -3.806306 -0.018089 4.054257 0.511082 -0.018092 -4.054255 -0.511080 -0.000003 -0.000000 -0.000001 -0.000002 0.000000 -0.000001 -8.207805 -6.751703 -1.599544 -8.631870 -4.579779 -15.164084 11.750215 -10.023957 -8.477092 -9.250149 -1.916838 13.904845 -1.359785 0.000005 -0.000001 0.000000 0.000000 0.000000 8.207798 -6.751697 -1.599543 -11.154681 24.997041 6.877792 1.551219 -4.794874 2.838372 43.165204 -5.166111 -14.841134 -34.202029 0.157458 -3.289906 0.000000 -0.000001 -0.000000 
-11.025048 103.192314 -0.041562 5.803070 -0.250816 12.713607 -0.000004 10.181559 0.131524 -0.127090 -0.245277 -2.656633 -0.276178 -0.504808 -5.000430 -0.277151 -0.503604 -5.000502 0.000000 16.740372 -2.049022 0.845526 1.339273 2.704158 -0.000003 9.617819 1.684977 1.856557 11.975765 -8.206471 0.000000 22.037399 7.501072 -0.000000 -0.000000 0.000000 -4.570001 11.014881 -2.160841 -0.050695 -6.535840 2.347021 -4.619038 10.509076 -25.894000 -0.000009 28.950774 0.000026 -37.546308 -1.691141 37.370878 -2.464801 -1.573981 2.681916 -1.849257 -3.581802 -6.586129 4.637198 -8.634131 -0.225379 -2.646266 -1.527800 1.527811 -1.273756 0.137311 -2.094877 -1.994598 -1.151585 1.151583 -0.000002 0.000002 0.000003 -9.108306 -0.517880 2.259798 0.000004 -0.000005 -0.000003 -0.000000 0.000007 0.000002 0.000002 -0.000000 -0.000002 0.000001 -0.000001 -0.000001 -9.532508 0.000020 0.000001 0.000006 -0.000005 -0.000003 0.000001 0.000001 0.000026 -0.000000 -0.000000 -0.000001 -0.000001 0.000001 -0.000000 -9.103591 -0.043102 -1.865096 0.000004 -0.000005 -0.000003 -0.000001 0.000001 0.000044 0.000001 -0.000000 -0.000005 -0.000002 0.000003 -0.000001 -8.076689 -0.486724 -3.806295 0.000001 -0.000004 -0.000001 0.000001 -0.000001 -0.000001 0.000003 -0.000002 -0.000001 -0.000000 0.000001 0.000000 4.570401 11.014676 -2.160816 0.025810 6.722990 -6.971797 28.473739 -26.374099 -46.808929 -0.000000 -17.917936 -0.000003 -7.212128 -7.750870 16.006190 2.466110 -1.576205 2.681699 -1.539950 3.690274 6.142356 3.939044 7.948709 0.746805 2.647882 -1.528749 1.528749 -0.579473 1.575005 2.538715 1.998924 -1.154084 1.154078 0.000000 -0.000004 -0.000000 9.109304 -0.518020 2.259899 0.000012 -0.000002 0.000001 0.000002 -0.000001 0.000001 0.000002 -0.000001 0.000001 0.000001 -0.000001 0.000002 9.533416 0.000010 -0.000002 0.000002 -0.001925 0.015971 -0.000002 0.001926 -0.015973 0.000000 0.000000 0.000001 -0.000000 0.000000 0.000002 9.104506 -0.042999 -1.865101 0.000012 -0.000002 0.000001 -0.000000 -0.000001 -0.000002 -0.000000 -0.000001 -0.000002 -0.000001 -0.000001 0.000000 8.077819 -0.486903 -3.806300 -0.018087 4.054255 0.511079 -0.018086 -4.054255 -0.511079 -0.000001 0.000001 0.000002 -0.000001 0.000001 0.000001 -8.207803 -6.751712 -1.599543 -9.121115 -3.842149 -16.342932 11.899411 -9.664597 -9.258570 -8.709691 -1.827847 14.238560 -2.010371 -0.000010 0.000003 0.000000 0.000000 0.000000 8.207799 -6.751703 -1.599546 -9.671468 26.112602 5.623880 0.610894 -2.630940 1.723746 46.554586 -4.854770 -12.421451 -35.404060 0.182978 -4.257533 -0.000000 0.000001 -0.000000 
